<?xml version="1.0"?>
<svg width="3437px" height="2513px" viewBox="0 0 3437 2513" version="1.1" xmlns="http://www.w3.org/2000/svg" xmlns:xlink="http://www.w3.org/1999/xlink">
    <title>atg-logo</title>
    <g id="Page-1" stroke="none" stroke-width="1" fill="none" fill-rule="evenodd">
        <g id="atg-logo" fill="#FFF9EC" fill-rule="nonzero">
            <path d="M1281.27235,1561.57953 C1321.87845,1561.57953 1360.79263,1567.9981 1398.01489,1580.83523 C1435.23714,1593.67236 1468.92175,1610.94135 1499.0687,1632.64222 C1529.21566,1654.34308 1555.0559,1679.71169 1576.58944,1708.74806 C1598.12298,1737.78443 1613.50407,1768.80749 1622.73273,1801.81725 L1427.08516,1801.81725 L1426.52571,1800.83932 C1413.02198,1777.41224 1393.98209,1757.10711 1369.40604,1739.92395 C1344.48866,1722.50213 1313.57265,1713.79122 1276.65802,1713.79122 C1255.12448,1713.79122 1233.28332,1717.76462 1211.13454,1725.71141 C1188.98576,1733.65821 1168.99033,1745.73122 1151.14826,1761.93046 C1133.30618,1778.12969 1118.69414,1798.60797 1107.31212,1823.3653 C1095.93011,1848.12262 1090.23911,1877.31181 1090.23911,1910.93286 C1090.23911,1946.38779 1095.93011,1976.95239 1107.31212,2002.62665 C1118.69414,2028.30091 1133.45999,2049.39048 1151.60969,2065.89536 C1169.75938,2082.40025 1189.90862,2094.62608 1212.05741,2102.57288 C1234.20619,2110.51967 1256.04735,2114.49307 1277.58088,2114.49307 C1321.2632,2114.49307 1357.10116,2104.55958 1385.09476,2084.69259 C1413.08836,2064.8256 1431.69949,2038.38723 1440.92815,2005.37746 L1236.97478,2005.37746 L1236.97478,1866.91984 L1642.11292,1866.91984 L1642.24005,1868.22508 C1642.77054,1873.86081 1643.03578,1879.23301 1643.03578,1884.34166 L1643.03578,1902.68042 L1643.03274,1904.38414 C1642.83174,1960.54777 1632.68123,2010.86992 1612.58121,2055.35058 C1592.27816,2100.28053 1565.36124,2138.48628 1531.83044,2169.96781 C1498.29965,2201.44935 1459.53928,2225.44255 1415.54934,2241.94744 C1371.5594,2258.45232 1325.87753,2266.70476 1278.50375,2266.70476 C1226.82326,2266.70476 1178.83423,2257.38256 1134.53667,2238.73815 C1090.23911,2220.09375 1051.94017,2194.57231 1019.63986,2162.17384 C987.339557,2129.77537 961.960744,2092.02809 943.503426,2048.93201 C925.046108,2005.83593 915.817449,1959.83622 915.817449,1910.93286 C915.817449,1860.19563 925.35373,1813.4318 944.426292,1770.64137 C963.498854,1727.85093 989.646722,1691.02059 1022.86989,1660.15035 C1056.09307,1629.28011 1094.85343,1605.13408 1139.151,1587.71226 C1183.44856,1570.29044 1230.82235,1561.57953 1281.27235,1561.57953 Z M3436.41593,1411.53515 L3436.41593,2090.06918 L3290.60312,2090.06918 L3290.60312,2035.05291 L3288.75739,2035.05291 L3288.49676,2035.51421 C3285.4063,2040.92905 3280.57122,2047.49949 3273.99153,2055.22554 C3267.22385,2063.17234 3257.84138,2070.96631 3245.84412,2078.60746 C3233.84687,2086.24861 3218.9272,2092.81999 3201.08513,2098.32162 C3183.24305,2103.82325 3161.40189,2106.57406 3135.56165,2106.57406 C3096.80128,2106.57406 3061.57856,2099.54421 3029.8935,2085.48449 C2998.20844,2071.42478 2971.29151,2052.16908 2949.14273,2027.7174 C2926.99395,2003.26573 2909.76712,1974.53501 2897.46224,1941.52524 C2885.15736,1908.51548 2879.00492,1872.7549 2879.00492,1834.24351 C2879.00492,1791.45308 2886.08023,1753.24733 2900.23084,1719.62628 C2914.38145,1686.00522 2933.3002,1657.58015 2956.98709,1634.35106 C2980.67399,1611.12196 3007.74472,1593.54732 3038.19929,1581.62713 C3068.65387,1569.70693 3100.18512,1563.74684 3132.79305,1563.74684 C3155.55707,1563.74684 3175.39869,1566.19201 3192.3179,1571.08234 C3209.23711,1575.97268 3223.69534,1581.62713 3235.6926,1588.04569 C3247.68985,1594.46426 3257.53376,1601.03565 3265.22431,1607.75986 C3272.91486,1614.48407 3278.91348,1619.98569 3283.22019,1624.26474 L3283.22019,1411.53515 L3436.41593,1411.53515 Z M3162.32476,1705.87221 C3140.17598,1705.87221 3120.9496,1709.69278 3104.64564,1717.33393 C3088.34167,1724.97508 3074.80631,1735.0614 3064.03954,1747.59288 C3053.27277,1760.12437 3045.2746,1773.87844 3040.04503,1788.85509 C3034.81545,1803.83174 3032.20066,1818.65557 3032.20066,1833.32657 C3032.20066,1852.88792 3035.4307,1870.7682 3041.89076,1886.96744 C3048.35082,1903.16668 3057.42567,1917.07357 3069.1153,1928.68811 C3080.80494,1940.30266 3094.49411,1949.16639 3110.18283,1955.27931 C3125.87155,1961.39223 3142.63695,1964.44869 3160.47903,1964.44869 C3184.47354,1964.44869 3204.77659,1960.16965 3221.38818,1951.61156 C3237.99976,1943.05347 3251.53513,1932.20304 3261.99428,1919.06027 C3272.45342,1905.91749 3279.99016,1891.70495 3284.60449,1876.42265 C3289.21882,1861.14036 3291.52598,1846.775 3291.52598,1833.32657 C3291.52598,1818.04428 3288.75739,1802.76198 3283.22019,1787.47968 C3277.683,1772.19738 3269.53101,1758.59614 3258.76425,1746.67595 C3247.99748,1734.75575 3234.46211,1724.97508 3218.15815,1717.33393 C3201.85418,1709.69278 3183.24305,1705.87221 3162.32476,1705.87221 Z M1077.75329,453.707727 L1077.75329,607.630751 L719.049107,607.630751 L719.049107,1680.39899 L544.072633,1680.39899 L544.072633,607.630751 L310.873813,607.630751 L310.873,604.94299 L247.633732,604.943636 C176.430022,604.943636 152.205114,628.091341 151.2646,699.524354 L151.235909,703.958349 C151.235909,777.938705 174.929787,804.001258 243.302097,806.467856 L247.633732,806.591515 L445.305732,806.591515 L445.305732,957.827424 L246.043416,957.810699 C89.9857775,954.527936 2.27373675e-13,861.280293 2.27373675e-13,703.958349 C2.27373675e-13,548.052112 88.6194576,456.085681 241.639383,453.753193 L247.633732,453.707727 L1077.75329,453.707727 Z M2655.0304,462.109722 C2807.21806,462.109722 2896.3535,551.330906 2898.64304,703.696293 L2898.68826,709.743453 L2898.688,891.87399 L2901.07897,891.874146 L2901.07897,1344.37075 C2901.07897,1382.69696 2899.07306,1415.15061 2895.06126,1441.7317 C2891.04945,1468.31278 2882.87154,1492.42121 2870.52752,1514.05697 C2860.6523,1530.12926 2847.53678,1545.58338 2831.18096,1560.41933 C2814.82513,1575.25528 2795.5376,1588.23674 2773.31837,1599.36371 C2751.09913,1610.49068 2726.25679,1619.29952 2698.79135,1625.79025 C2671.32591,1632.28098 2641.85456,1635.52635 2610.37731,1635.52635 C2565.93884,1635.52635 2527.98098,1629.49924 2496.50373,1617.44503 C2465.02648,1605.39082 2439.10404,1590.40032 2418.73641,1572.47354 C2398.36878,1554.54676 2383.09305,1535.07458 2372.90924,1514.05697 C2362.72542,1493.03937 2356.39911,1473.2581 2353.93031,1454.71316 L2531.68419,1454.71316 C2537.23899,1467.69462 2544.49111,1477.58525 2553.44052,1484.38507 C2562.38993,1491.18488 2571.49365,1496.1302 2580.75166,1499.22102 C2590.00968,1502.31184 2598.49619,1504.16634 2606.2112,1504.7845 C2613.74252,1505.38795 2618.77416,1505.69686 2621.30612,1505.71122 L2621.75079,1505.71104 C2626.75071,1505.6844 2635.92077,1504.91193 2649.26097,1503.39363 C2662.83939,1501.84822 2676.88071,1496.59382 2691.38494,1487.63043 C2705.88916,1478.66704 2718.69608,1464.75833 2729.8057,1445.90431 C2740.91531,1427.05028 2746.47012,1400.31466 2746.47012,1365.69743 L2746.47012,1349.93423 L2744.61852,1349.93423 C2740.91531,1357.35221 2735.20621,1365.38835 2727.49119,1374.04266 C2719.77618,1382.69696 2710.05527,1390.57856 2698.32845,1397.68746 C2686.60163,1404.79635 2673.02321,1410.82346 2657.59318,1415.76878 C2642.16316,1420.7141 2624.26433,1423.18675 2603.8967,1423.18675 C2568.71624,1423.18675 2535.54169,1416.85057 2504.37304,1404.17819 C2473.20439,1391.50581 2445.73895,1373.42449 2421.97671,1349.93423 C2398.21448,1326.44397 2379.38985,1298.00839 2365.50283,1264.62749 C2351.6158,1231.2466 2344.67229,1193.84763 2344.67229,1152.43059 C2344.67229,1108.54089 2351.9244,1069.44197 2366.42863,1035.13383 C2380.93285,1000.82568 2400.22038,971.771941 2424.29122,947.972598 C2448.36206,924.173254 2475.9818,906.091935 2507.15045,893.72864 C2538.3191,881.365345 2570.56785,875.183697 2603.8967,875.183697 C2632.90514,875.183697 2660.21629,880.438098 2685.83013,890.946899 C2711.44397,901.4557 2731.3487,917.837066 2745.54432,940.090997 L2747.39592,940.090997 L2747.39592,891.874146 L2747.452,891.87399 L2747.45235,709.743453 C2747.45235,637.934283 2725.80484,614.3091 2659.24884,613.374715 L2655.0304,613.345631 L2655.0304,462.109722 Z M1623.05214,1013.00634 L1623.05214,1527.6285 L1469.3691,1527.6285 L1469.3691,1013.00634 L1623.05214,1013.00634 Z M1033.90576,740.311387 L1033.90576,959.141711 L1035.75737,959.141711 C1048.71859,935.65145 1067.08032,918.961002 1090.84255,909.070365 C1114.60479,899.179729 1140.37293,894.234411 1168.14697,894.234411 C1180.49099,894.234411 1193.14361,895.3162 1206.10483,897.479776 C1219.06605,899.643353 1231.71867,903.043259 1244.06269,907.679495 C1256.40671,912.31573 1268.13353,918.188296 1279.24315,925.29719 C1290.35277,932.406085 1299.91938,940.90585 1307.94299,950.796487 C1319.05261,963.777946 1327.69343,976.450324 1333.86543,988.813619 C1340.03744,1001.17691 1344.82075,1014.77654 1348.21536,1029.61249 C1351.60996,1044.44845 1353.77017,1060.67527 1354.69597,1078.29297 C1355.62177,1095.91066 1356.08467,1116.15556 1356.08467,1139.02765 L1356.08467,1426.47427 L1202.40163,1426.47427 L1202.40163,1146.44563 C1202.40163,1140.26398 1201.93873,1131.14605 1201.01293,1119.09184 C1200.08713,1107.03763 1197.15542,1095.13796 1192.21781,1083.39283 C1187.2802,1071.6477 1179.10229,1061.29344 1167.68407,1052.33005 C1156.26586,1043.36666 1140.37293,1038.88496 1120.0053,1038.88496 C1098.40327,1038.88496 1081.73884,1043.05758 1070.01202,1051.4028 C1058.2852,1059.74802 1049.79869,1069.48412 1044.55248,1080.61109 C1039.30627,1091.73805 1036.22027,1103.01956 1035.29447,1114.45561 C1034.36867,1125.89165 1033.90576,1134.7005 1033.90576,1140.88215 L1033.90576,1426.47427 L880.222723,1426.47427 L880.222723,740.311387 L1033.90576,740.311387 Z M2057.50552,824.606581 C2082.19355,824.606581 2106.72729,828.933734 2131.10673,837.588041 C2155.48617,846.242347 2174.7737,856.751148 2188.96932,869.114443 C2195.75853,875.296091 2202.70204,882.559527 2209.79985,890.904751 C2216.89767,899.249975 2223.22398,909.913317 2228.77878,922.894777 C2234.33359,935.876237 2238.9626,951.484897 2242.66581,969.720758 C2246.36901,987.956618 2248.22061,1009.74693 2248.22061,1035.09168 L2248.22061,1356.84644 L2094.53757,1356.84644 L2094.53757,1075.89055 C2094.53757,1066.61808 2094.07467,1055.95474 2093.14887,1043.90053 C2092.22307,1031.84632 2089.29137,1020.25573 2084.35376,1009.12876 C2079.41615,998.001795 2071.54684,988.574783 2060.74582,980.847723 C2049.9448,973.120664 2034.36048,969.257134 2013.99285,969.257134 C1991.77361,969.257134 1974.80059,973.429746 1963.07377,981.77497 C1951.34695,990.120195 1942.70614,1000.01083 1937.15133,1011.44688 C1931.59652,1022.88293 1928.35621,1034.62806 1927.43041,1046.68227 C1926.50461,1058.73648 1926.04171,1068.78166 1926.04171,1076.8178 L1926.04171,1356.84644 L1772.35867,1356.84644 L1772.35867,842.224277 L1915.85789,842.224277 L1915.85789,896.931857 L1917.7095,896.931857 C1921.4127,890.75021 1926.50461,883.486774 1932.98522,875.14155 C1939.46583,866.796326 1948.10664,858.914725 1958.90766,851.496748 C1969.70868,844.078771 1983.1328,837.742582 1999.18002,832.488182 C2015.22725,827.233781 2034.66908,824.606581 2057.50552,824.606581 Z M3206.67761,790.888503 C3223.34203,790.888503 3242.47526,793.05208 3264.0773,797.379233 C3285.67933,801.706387 3306.20126,809.742528 3325.64309,821.487659 C3345.08493,833.232789 3362.21225,849.614155 3377.02508,870.631757 C3391.8379,891.649359 3400.78731,919.15769 3403.87332,953.156752 L3252.96768,953.156752 C3252.96768,950.684093 3252.50478,947.129646 3251.57898,942.49341 C3250.65318,937.857174 3248.64727,933.530021 3245.56127,929.51195 C3242.47526,925.493879 3237.69196,921.939432 3231.21135,918.848608 C3224.73074,915.757784 3215.93562,914.212372 3204.82601,914.212372 C3188.77878,914.212372 3177.51486,918.230443 3171.03425,926.266585 C3164.55364,934.302727 3161.31334,941.720704 3161.31334,948.520516 C3161.31334,962.738306 3169.33695,974.019812 3185.38417,982.365037 C3201.4314,990.710261 3219.63883,997.973697 3240.00646,1004.15534 C3261.60849,1010.33699 3283.21053,1016.98226 3304.81256,1024.09116 C3326.4146,1031.20005 3345.70213,1040.62707 3362.67515,1052.3722 C3379.64818,1064.11733 3393.3809,1078.95328 3403.87332,1096.88006 C3414.36573,1114.80684 3419.61194,1137.67893 3419.61194,1165.49635 C3419.61194,1192.6956 3414.05713,1217.1131 3402.94752,1238.74887 C3391.8379,1260.38464 3376.71648,1278.77504 3357.58325,1293.92007 C3338.45002,1309.06511 3316.23078,1320.6557 3290.92554,1328.69184 C3265.6203,1336.72798 3238.77206,1340.74605 3210.38081,1340.74605 C3190.63038,1340.74605 3169.33695,1338.2734 3146.50051,1333.32808 C3123.66408,1328.38276 3102.06204,1319.41937 3081.69441,1306.43791 C3061.32678,1293.45645 3043.73655,1275.9933 3028.92373,1254.04845 C3014.11091,1232.1036 3004.85289,1204.13164 3001.14969,1170.13258 L3153.90693,1170.13258 C3155.75853,1181.87771 3159.46173,1190.99564 3165.01654,1197.48637 C3170.57135,1203.9771 3176.58906,1208.61334 3183.06967,1211.39508 C3189.55028,1214.17682 3195.56799,1215.87677 3201.1228,1216.49494 C3206.67761,1217.1131 3210.38081,1217.42219 3212.23242,1217.42219 C3225.19364,1217.42219 3237.38336,1213.86774 3248.80157,1206.75884 C3260.21979,1199.64995 3265.9289,1189.91385 3265.9289,1177.55056 C3265.9289,1167.65992 3263.4601,1159.62378 3258.52249,1153.44213 C3253.58488,1147.26049 3245.71557,1141.38792 3234.91455,1135.82444 C3224.11354,1130.26095 3210.07221,1124.38839 3192.79059,1118.20674 C3175.50896,1112.02509 3154.52413,1104.29803 3129.83609,1095.02556 C3113.17166,1089.46208 3097.43304,1082.66227 3082.62021,1074.62613 C3067.80739,1066.58998 3054.84617,1057.00843 3043.73655,1045.88147 C3032.62694,1034.7545 3023.83182,1022.08212 3017.35121,1007.86433 C3010.8706,993.646544 3007.6303,977.883342 3007.6303,960.574729 C3007.6303,935.229974 3013.0308,912.048796 3023.83182,891.031194 C3034.63284,870.013592 3049.13706,852.086814 3067.34449,837.25086 C3085.55192,822.414906 3106.69105,810.978858 3130.76189,802.942716 C3154.83273,794.906574 3180.13797,790.888503 3206.67761,790.888503 Z M2622.41273,1018.907 C2605.7483,1018.907 2590.00968,1021.99783 2575.19685,1028.17947 C2560.38403,1034.36112 2547.26851,1043.16997 2535.85029,1054.60602 C2524.43207,1066.04207 2515.32836,1079.64169 2508.53915,1095.40489 C2501.74994,1111.16809 2498.35533,1128.32217 2498.35533,1146.86711 C2498.35533,1167.26654 2501.74994,1185.65695 2508.53915,1202.03831 C2515.32836,1218.41968 2524.43207,1232.32839 2535.85029,1243.76443 C2547.26851,1255.20048 2560.38403,1264.00933 2575.19685,1270.19098 C2590.00968,1276.37262 2605.4397,1279.46345 2621.48693,1279.46345 C2640.00296,1279.46345 2656.97598,1276.21808 2672.40601,1269.72735 C2687.83603,1263.23662 2701.10585,1254.42778 2712.21547,1243.30081 C2723.32509,1232.17384 2731.9659,1218.72876 2738.13791,1202.96556 C2744.30992,1187.20236 2747.39592,1170.04829 2747.39592,1151.50334 C2747.39592,1131.10391 2744.15562,1112.71351 2737.67501,1096.33214 C2731.1944,1079.95077 2722.24499,1066.04207 2710.82677,1054.60602 C2699.40855,1043.16997 2686.13873,1034.36112 2671.0173,1028.17947 C2655.89588,1021.99783 2639.69436,1018.907 2622.41273,1018.907 Z M1623.05214,841.46562 L1623.05214,958.298759 L1469.3691,958.298759 L1469.3691,841.46562 L1623.05214,841.46562 Z M2428.17654,84.5715027 L2428.17654,772.983535 L2275.03262,772.983535 L2275.03262,84.5715027 L2428.17654,84.5715027 Z M1596.37904,16.8039899 L1596.379,16.914 L1629.74823,16.9143005 L1900.97902,705.326333 L1711.85551,705.326333 L1678.64357,605.785674 L1441.54727,605.785674 L1405.56767,705.326333 L1218.28927,705.326333 L1432.137,168.039 L1260.29924,168.039899 L1260.29924,16.8039899 L1596.37904,16.8039899 Z M2159.79727,1.13686838e-13 L2159.79727,688.412032 L2006.65336,688.412032 L2006.65336,1.13686838e-13 L2159.79727,1.13686838e-13 Z M1562.40181,230.880202 L1559.63414,230.880202 L1489.52006,466.242695 L1632.51589,466.242695 L1562.40181,230.880202 Z" id="navy" fill="#FFFFFF"></path>
            <path d="M1829.80618,2080.20886 L1969.01957,2139.30144 C1934.57053,2220.45828 1972.43469,2314.17536 2053.59153,2348.6244 C2133.34912,2382.47949 2225.23757,2346.49344 2261.08016,2268.21144 L2262.9145,2264.05243 L2402.12788,2323.14501 C2335.04292,2481.18729 2152.54123,2554.92275 1994.49895,2487.83779 C1838.19341,2421.49002 1764.35195,2242.24822 1827.64553,2085.42772 L1829.80618,2080.20886 Z M2556.79775,1732.34706 C2603.55629,1732.34706 2644.16239,1740.5995 2678.61605,1757.10438 C2713.06971,1773.60926 2741.67855,1794.85165 2764.44258,1820.83156 C2787.2066,1846.81147 2804.27962,1875.84783 2815.66164,1907.94066 C2827.04365,1940.03349 2832.73466,1971.66784 2832.73466,2002.84373 C2832.73466,2034.01962 2827.04365,2065.65397 2815.66164,2097.7468 C2804.27962,2129.83963 2787.2066,2158.87599 2764.44258,2184.8559 C2741.67855,2210.83581 2713.06971,2232.0782 2678.61605,2248.58308 C2644.16239,2265.08796 2603.55629,2273.3404 2556.79775,2273.3404 C2510.03921,2273.3404 2469.43311,2265.08796 2434.97945,2248.58308 C2400.52579,2232.0782 2371.91695,2210.83581 2349.15292,2184.8559 C2326.38889,2158.87599 2309.31588,2129.83963 2297.93386,2097.7468 C2286.55185,2065.65397 2280.86084,2034.01962 2280.86084,2002.84373 C2280.86084,1971.66784 2286.55185,1940.03349 2297.93386,1907.94066 C2309.31588,1875.84783 2326.38889,1846.81147 2349.15292,1820.83156 C2371.91695,1794.85165 2400.52579,1773.60926 2434.97945,1757.10438 C2469.43311,1740.5995 2510.03921,1732.34706 2556.79775,1732.34706 Z M2556.79775,1874.47243 C2540.18616,1874.47243 2524.49744,1877.68171 2509.73159,1884.10027 C2494.96573,1890.51884 2481.8918,1899.38257 2470.50979,1910.69147 C2459.12777,1922.00037 2450.20674,1935.60162 2443.74668,1951.49521 C2437.28661,1967.3888 2434.05658,1984.50497 2434.05658,2002.84373 C2434.05658,2021.18249 2437.28661,2038.29866 2443.74668,2054.19225 C2450.20674,2070.08584 2459.12777,2083.68709 2470.50979,2094.99599 C2481.8918,2106.30489 2494.96573,2115.16862 2509.73159,2121.58719 C2524.49744,2128.00575 2540.18616,2131.21503 2556.79775,2131.21503 C2573.40934,2131.21503 2589.09806,2128.00575 2603.86391,2121.58719 C2618.62976,2115.16862 2631.7037,2106.30489 2643.08571,2094.99599 C2654.46772,2083.68709 2663.38876,2070.08584 2669.84882,2054.19225 C2676.30888,2038.29866 2679.53891,2021.18249 2679.53891,2002.84373 C2679.53891,1984.50497 2676.30888,1967.3888 2669.84882,1951.49521 C2663.38876,1935.60162 2654.46772,1922.00037 2643.08571,1910.69147 C2631.7037,1899.38257 2618.62976,1890.51884 2603.86391,1884.10027 C2589.09806,1877.68171 2573.40934,1874.47243 2556.79775,1874.47243 Z M1992.5072,1483.02331 C2039.26573,1483.02331 2079.87183,1491.27575 2114.3255,1507.78063 C2148.77916,1524.28552 2177.388,1545.52791 2200.15202,1571.50782 C2222.91605,1597.48772 2239.98907,1626.52409 2251.37108,1658.61691 C2262.7531,1690.70974 2268.4441,1722.3441 2268.4441,1753.51999 C2268.4441,1784.69587 2262.7531,1816.33023 2251.37108,1848.42306 C2239.98907,1880.51588 2222.91605,1909.55225 2200.15202,1935.53215 C2177.388,1961.51206 2148.77916,1982.75445 2114.3255,1999.25934 C2079.87183,2015.76422 2039.26573,2024.01666 1992.5072,2024.01666 C1945.74866,2024.01666 1905.14256,2015.76422 1870.6889,1999.25934 C1836.23524,1982.75445 1807.62639,1961.51206 1784.86237,1935.53215 C1762.09834,1909.55225 1745.02532,1880.51588 1733.64331,1848.42306 C1722.2613,1816.33023 1716.57029,1784.69587 1716.57029,1753.51999 C1716.57029,1722.3441 1722.2613,1690.70974 1733.64331,1658.61691 C1745.02532,1626.52409 1762.09834,1597.48772 1784.86237,1571.50782 C1807.62639,1545.52791 1836.23524,1524.28552 1870.6889,1507.78063 C1905.14256,1491.27575 1945.74866,1483.02331 1992.5072,1483.02331 Z M1992.5072,1625.14868 C1975.89561,1625.14868 1960.20689,1628.35796 1945.44103,1634.77653 C1930.67518,1641.1951 1917.60125,1650.05883 1906.21923,1661.36773 C1894.83722,1672.67663 1885.91618,1686.27787 1879.45612,1702.17146 C1872.99606,1718.06505 1869.76603,1735.18123 1869.76603,1753.51999 C1869.76603,1771.85874 1872.99606,1788.97492 1879.45612,1804.86851 C1885.91618,1820.7621 1894.83722,1834.36334 1906.21923,1845.67224 C1917.60125,1856.98114 1930.67518,1865.84488 1945.44103,1872.26344 C1960.20689,1878.68201 1975.89561,1881.89129 1992.5072,1881.89129 C2009.11878,1881.89129 2024.8075,1878.68201 2039.57336,1872.26344 C2054.33921,1865.84488 2067.41314,1856.98114 2078.79516,1845.67224 C2090.17717,1834.36334 2099.09821,1820.7621 2105.55827,1804.86851 C2112.01833,1788.97492 2115.24836,1771.85874 2115.24836,1753.51999 C2115.24836,1735.18123 2112.01833,1718.06505 2105.55827,1702.17146 C2099.09821,1686.27787 2090.17717,1672.67663 2078.79516,1661.36773 C2067.41314,1650.05883 2054.33921,1641.1951 2039.57336,1634.77653 C2024.8075,1628.35796 2009.11878,1625.14868 1992.5072,1625.14868 Z" id="navy-copy" fill="#0C47FF"></path>
        </g>
    </g>
</svg>